# This file uses centimeters as units for non-parametric coordinates.

mtllib gurpfloor.mtl
g default
v 0.707107 0.707107 0.000000
v 0.000000 1.000000 0.000000
v -0.707107 0.707107 0.000000
v -1.000000 0.000000 0.000000
v -0.707107 -0.707107 0.000000
v 0.000000 -1.000000 0.000000
v 0.707107 -0.707107 0.000000
v 1.000000 0.000000 0.000000
v 0.000000 0.000000 0.000000
vt 0.853553 0.853553
vt 0.500000 1.000000
vt 0.500000 0.500000
vt 0.146447 0.853553
vt 0.000000 0.500000
vt 0.146447 0.146447
vt 0.500000 0.000000
vt 0.853553 0.146447
vt 1.000000 0.500000
vn 0.000000 0.000000 1.000000
vn 0.000000 0.000000 1.000000
vn 0.000000 0.000000 1.000000
vn 0.000000 0.000000 1.000000
vn 0.000000 0.000000 1.000000
vn 0.000000 0.000000 1.000000
vn 0.000000 0.000000 1.000000
vn 0.000000 0.000000 1.000000
vn 0.000000 0.000000 1.000000
s 1
g pCylinder1
usemtl initialShadingGroup
f 1/1/1 2/2/2 9/3/3
f 2/2/2 3/4/4 9/3/3
f 3/4/4 4/5/5 9/3/3
f 4/5/5 5/6/6 9/3/3
f 5/6/6 6/7/7 9/3/3
f 6/7/7 7/8/8 9/3/3
f 7/8/8 8/9/9 9/3/3
f 8/9/9 1/1/1 9/3/3
